<svg xmlns="http://www.w3.org/2000/svg" width="240.94" height="155.91" viewBox="0 0 240.94 155.91"><path fill="#2BA9E0" d="M79.935 90.602c0 3.453-1.497 6.248-4.983 6.248-3.49 0-4.996-2.795-4.996-6.248V78.798h-6.364v11.804c0 6.824 4.43 12.353 11.324 12.353 6.887 0 11.384-5.528 11.384-12.353V78.784h-6.38l.015 11.818zM143.808 71.586h6.344v30.76h-6.344zM154.837 72.72h1.81v4.873h1.33V72.72h1.807v-1.104h-4.947M165.108 71.616l-1.335 4.11h-.017l-1.41-4.11h-1.868v5.977h1.24V73.4h.017l1.477 4.193h1.027l1.478-4.24h.014v4.24h1.244v-5.977M49.342 82.95c-.07.14-.07.22-.315.22-.2-.01-.223-.22-.223-.22l-.678-4.117H42.44v23.495h6.372V89.61c0-1.04 2.827-6.02 8.303-4.744 2.767.652 3.94 1.816 3.94 1.816v-7.156c-1.024-.53-1.727-.787-2.65-.998-5.467-1.25-8.918 4.13-9.063 4.422zM101.12 78.34c-6.936 0-12.56 5.568-12.56 12.438v19.287h6.39v-8.454l.003-3.166s.01-.25.24-.257c.205 0 .25.136.302.257.482 1.192 3.142 5.73 9.04 4.306 5.277-1.474 9.146-6.272 9.146-11.972 0-6.87-5.622-12.438-12.56-12.438zm.006 18.733c-3.514 0-6.356-2.816-6.356-6.295 0-3.475 2.842-6.297 6.356-6.297 3.512 0 6.358 2.823 6.358 6.298 0 3.48-2.845 6.295-6.358 6.295zM128.67 78.34c-6.938 0-12.562 5.568-12.562 12.438 0 5.7 3.87 10.498 9.152 11.972 5.897 1.424 8.555-3.113 9.035-4.306.053-.12.098-.257.304-.257.23.006.238.257.238.257l.005 3.892h6.39V90.778c-.002-6.87-5.624-12.438-12.563-12.438zm-.003 18.733c-3.513 0-6.36-2.816-6.36-6.295 0-3.475 2.848-6.297 6.36-6.297 3.51 0 6.356 2.823 6.356 6.298 0 3.48-2.847 6.295-6.356 6.295zM23.01 71.57H15.23v30.718h7.25c9.52 0 17.088-1.842 17.088-15.358 0-13.646-7.144-15.36-16.56-15.36zm1.27 25.455l-2.632-.067v-20.06h2.563c5.872 0 8.94.814 8.94 10.03 0 9.61-3.473 10.097-8.87 10.097z"/><g><circle fill="#2BA9E0" cx="211.353" cy="91.899" r="7.294"/><path fill="#2BA9E0" d="M220.42 83.213c2.163 2.257 3.495 5.314 3.495 8.686 0 4.27-2.133 8.038-5.39 10.308 6.02-1.855 10.995-6.377 13.224-11.854 3.08-7.576.212-13.28-4.605-18.45.146.67.23 1.363.23 2.077 0 4.384-2.94 8.08-6.954 9.233z"/><circle fill="#2BA9E0" cx="217.765" cy="73.979" r="5.58"/><path fill="#2BA9E0" d="M201.742 99.988c-1.843-2.186-2.954-5.007-2.954-8.09 0-6.43 4.834-11.73 11.064-12.47-1.068-1.55-1.697-3.426-1.697-5.45 0-5.306 4.303-9.607 9.61-9.607.438 0 .868.032 1.29.09-3.143-2.713-6.28-5.464-8.756-8.472 1.264 13.172-12 8.386-16.9 20.525-3.29 8.145-.325 18.215 8.342 23.475z"/></g></svg>