<svg xmlns="http://www.w3.org/2000/svg" viewBox="-319 96.1 586 628"><path fill="#2BA9E0" d="M-64.7 601.6c0 12.6-5.5 22.8-18.2 22.8s-18.2-10.2-18.2-22.8v-43h-23.2v43c0 24.9 16.1 45 41.3 45 25.1 0 41.5-20.1 41.5-45v-43.1h-23.2v43.1zM168.1 532.3h23.1v112.1h-23.1zM208.3 536.4h6.6v17.8h4.8v-17.8h6.6v-4h-18M245.7 532.4l-4.8 15h-.1l-5.1-15h-6.8v21.8h4.5v-15.3l5.4 15.3h3.8l5.3-15.4h.1v15.4h4.5v-21.8M-176.2 573.7c-.3.5-.3.8-1.2.8-.7 0-.8-.8-.8-.8l-2.5-15h-20.7v85.6h23.2V598c0-3.8 10.3-21.9 30.3-17.3 10.1 2.4 14.4 6.6 14.4 6.6v-26.1c-3.7-1.9-6.3-2.9-9.7-3.6-19.9-4.5-32.5 15.1-33 16.1zM12.5 556.9c-25.3 0-45.8 20.3-45.8 45.3v70.3H-10v-42.3s0-.9.9-.9c.7 0 .9.5 1.1.9 1.8 4.3 11.5 20.9 32.9 15.7 19.2-5.4 33.3-22.9 33.3-43.6.1-25.1-20.4-45.4-45.7-45.4zm0 68.3c-12.8 0-23.2-10.3-23.2-22.9 0-12.7 10.4-22.9 23.2-22.9 12.8 0 23.2 10.3 23.2 22.9 0 12.6-10.4 22.9-23.2 22.9zM112.9 556.9c-25.3 0-45.8 20.3-45.8 45.3 0 20.8 14.1 38.3 33.4 43.6 21.5 5.2 31.2-11.3 32.9-15.7.2-.4.4-.9 1.1-.9.8 0 .9.9.9.9v14.2h23.3v-42.1c0-25-20.5-45.3-45.8-45.3zm0 68.3c-12.8 0-23.2-10.3-23.2-22.9 0-12.7 10.4-22.9 23.2-22.9 12.8 0 23.2 10.3 23.2 22.9 0 12.6-10.4 22.9-23.2 22.9zM-272.2 532.3h-28.3v112h26.4c34.7 0 62.3-6.7 62.3-56 0-49.8-26.1-56-60.4-56zm4.6 92.7l-9.6-.2v-73.1h9.3c21.4 0 32.6 3 32.6 36.6.1 35-12.6 36.7-32.3 36.7z"/><g><path fill="#2BA9E0" d="M-69.7 312.5c-29.1 0-52.7 23.6-52.7 52.7s23.6 52.7 52.7 52.7S-17 394.3-17 365.2s-23.6-52.7-52.7-52.7zM-4.1 302.4c15.6 16.3 25.2 38.4 25.2 62.8 0 30.9-15.4 58.1-38.9 74.5 43.5-13.4 79.5-46.1 95.6-85.7 22.3-54.8 1.5-96-33.3-133.4 1.1 4.8 1.7 9.9 1.7 15-.1 31.8-21.3 58.5-50.3 66.8zM-63.7 235.7c0 22.3 18.1 40.3 40.3 40.3S17 257.9 17 235.7c0-22.3-18.1-40.3-40.3-40.3s-40.4 18-40.4 40.3z"/><path fill="#2BA9E0" d="M-139.2 423.7c-13.3-15.8-21.3-36.2-21.3-58.5 0-46.5 34.9-84.8 80-90.1-7.7-11.2-12.3-24.8-12.3-39.4 0-38.4 31.1-69.4 69.5-69.4 3.2 0 6.3.2 9.3.6-22.7-19.6-45.4-39.5-63.3-61.2 9.1 95.2-86.7 60.6-122.2 148.4-23.7 58.8-2.3 131.5 60.3 169.6z"/></g></svg>