<?xml version="1.0" encoding="UTF-8" standalone="no"?>
<!-- Created with Inkscape (http://www.inkscape.org/) -->

<svg
   xmlns:dc="http://purl.org/dc/elements/1.1/"
   xmlns:cc="http://creativecommons.org/ns#"
   xmlns:rdf="http://www.w3.org/1999/02/22-rdf-syntax-ns#"
   xmlns:svg="http://www.w3.org/2000/svg"
   xmlns="http://www.w3.org/2000/svg"
   xmlns:sodipodi="http://sodipodi.sourceforge.net/DTD/sodipodi-0.dtd"
   xmlns:inkscape="http://www.inkscape.org/namespaces/inkscape"
   id="svg2"
   version="1.1"
   inkscape:version="0.48.3.1 r9886"
   width="449.55"
   height="530.9375"
   xml:space="preserve"
   sodipodi:docname="grunt-logo.eps"><metadata
     id="metadata8"><rdf:RDF><cc:Work
         rdf:about=""><dc:format>image/svg+xml</dc:format><dc:type
           rdf:resource="http://purl.org/dc/dcmitype/StillImage" /><dc:title></dc:title></cc:Work></rdf:RDF></metadata><defs
     id="defs6" /><sodipodi:namedview
     pagecolor="#ffffff"
     bordercolor="#666666"
     borderopacity="1"
     objecttolerance="10"
     gridtolerance="10"
     guidetolerance="10"
     inkscape:pageopacity="0"
     inkscape:pageshadow="2"
     inkscape:window-width="640"
     inkscape:window-height="480"
     id="namedview4"
     showgrid="false"
     inkscape:zoom="0.44449676"
     inkscape:cx="224.77499"
     inkscape:cy="265.46875"
     inkscape:window-x="65"
     inkscape:window-y="24"
     inkscape:window-maximized="0"
     inkscape:current-layer="g10" /><g
     id="g10"
     inkscape:groupmode="layer"
     inkscape:label="ink_ext_XXXXXX"
     transform="matrix(1.25,0,0,-1.25,0,530.9375)"><g
       id="g12"
       transform="scale(0.1,0.1)"><path
         d="m 677.141,3425.82 c 0,0 57.371,-221.27 65.55,-295.03 8.211,-73.75 -147.511,-237.65 -147.511,-319.61 0,-81.96 32.746,-229.47 213.058,-303.24 180.317,-73.76 204.882,-262.24 204.882,-377 0,-114.73 -65.546,-335.98 -65.546,-335.98 0,0 -40.965,-549.08 180.296,-647.42 221.25,-98.33 172.1,-98.33 221.25,-98.33 49.16,0 409.77,-147.55 622.83,-90.179 213.08,57.379 270.41,122.919 270.41,122.919 0,0 213.1,-16.36 278.66,172.14 65.58,188.47 106.54,581.83 81.95,762.14 -24.59,180.32 -57.36,417.94 90.14,499.91 147.54,81.96 303.24,180.27 278.65,262.23 -24.59,81.96 -155.69,196.71 -155.69,196.71 0,0 -32.79,204.86 -8.22,254.04 24.57,49.18 172.1,172.13 90.14,262.26 -81.92,90.13 -229.47,90.13 -229.47,90.13 l -188.47,-16.37 c 0,0 -319.61,286.82 -737.57,270.43 -417.94,-16.39 -680.22,-270.43 -680.22,-270.43 0,0 -139.295,49.18 -262.237,0 -122.937,-49.18 -147.449,0.02 -122.882,-139.32"
         style="fill:#f8a00f;fill-opacity:1;fill-rule:nonzero;stroke:none"
         id="path14" /><path
         d="m 1425.97,2205.65 c 0,0 -162.29,-248.15 -281.33,-424.24 -18.42,-27.24 119.04,-29.13 119.04,-29.13 l 162.29,453.37"
         style="fill:#e67a17;fill-opacity:1;fill-rule:nonzero;stroke:none"
         id="path16" /><path
         d="m 1503.24,2720.13 c 0,0 -48.91,-122.05 -75.72,-186.75 -29.09,-70.34 -139.99,-105.33 -139.99,-105.33 0,0 57.48,60.3 57.48,213.05 0,64.1 82.74,89.57 82.74,89.57 l 75.49,-10.54"
         style="fill:#e67a17;fill-opacity:1;fill-rule:nonzero;stroke:none"
         id="path18" /><path
         d="m 1453.82,2651.12 c 0,0 -100.23,-119.31 -286.33,-52.49 -186.146,66.8 -205.228,305.45 -205.228,372.27 0,66.81 353.168,-66.82 400.908,-95.46 47.74,-28.64 138.37,-143.17 90.65,-224.32"
         style="fill:#e67a17;fill-opacity:1;fill-rule:nonzero;stroke:none"
         id="path20" /><path
         d="m 750.828,3926.03 c 0,0 171.801,33.43 286.332,-57.26 114.58,-90.66 147.95,-162.27 147.95,-162.27 L 992.055,3553.46 c 0,0 -93.282,43.25 -121.918,167.35 -28.637,124.09 -9.539,181.35 -119.309,205.22"
         style="fill:#e67a17;fill-opacity:1;fill-rule:nonzero;stroke:none"
         id="path22" /><path
         d="m 1403.71,2995.75 c -73.97,105 -195.87,150.8 -293.2,158.4 -165.963,12.98 -244.748,-45.7 -244.748,-45.7 0,0 271.798,-11.51 350.138,-114.4 145.85,-191.51 358.61,-207.06 392.62,-165.01 -39.34,-1.96 -82.62,17.53 -128.94,61.34 -28.94,27.4 -52.4,72.04 -75.87,105.37"
         style="fill:#e67a17;fill-opacity:1;fill-rule:nonzero;stroke:none"
         id="path24" /><path
         d="m 944.883,2624.48 c 0,0 -301.567,103.67 -244.254,208.65 57.262,105.02 11.68,162.22 11.68,162.22 0,0 -168.387,-125.7 -125.477,-259.32 26.367,-82.02 70.606,-141.4 313.535,-255.25 116.523,-216.43 24.059,-606 29.606,-607.83 9.23,-3.07 163.597,76.3 153.057,440.77 -3.21,111.92 -12.16,264.71 -138.147,310.76"
         style="fill:#e67a17;fill-opacity:1;fill-rule:nonzero;stroke:none"
         id="path26" /><path
         d="m 1340.06,3739.28 c -126.45,-64.24 -299.68,-153.7 -299.68,-153.7 l 68.18,-34.11 c -6.51,-10.54 -9.65,-16.82 -9.65,-16.82 l 69.98,-31.82 c 0,0 170.83,-123.76 275.5,-203.31 -34.9,107.45 -137.34,276.28 -137.34,276.28 0,0 -29.02,77.56 33.01,163.48"
         style="fill:#e67a17;fill-opacity:1;fill-rule:nonzero;stroke:none"
         id="path28" /><path
         d="m 1760.14,1120.68 c -388.66,0 -520.31,197.32 -520.31,197.32 l 60.74,-147.91 c 22.96,-64 267.88,-263.11 458.98,-263.11"
         style="fill:#e67a17;fill-opacity:1;fill-rule:nonzero;stroke:none"
         id="path30" /><path
         d="m 1282.42,1451.31 c 0,0 35.75,-218.54 178.93,-218.54 121.67,0 157.53,184.6 157.53,222.76 l -336.46,-4.22"
         style="fill:#e67a17;fill-opacity:1;fill-rule:nonzero;stroke:none"
         id="path32" /><path
         d="m 1044.15,1780.9 c 12.72,35.02 57.26,176.6 71.56,305.45 17.16,154.32 10.91,380.03 10.91,380.03 0,0 -38.2,-147.95 -71.61,-171.86 -33.39,-23.85 -95.455,-186.1 -95.455,-186.1 0,0 -33.243,-241.56 -49.063,-322.76 43.781,-8.77 80.637,17.04 133.658,-4.76"
         style="fill:#e67a17;fill-opacity:1;fill-rule:nonzero;stroke:none"
         id="path34" /><path
         d="m 698.379,2738.4 c 0,0 81.109,28.66 104.996,205.22 23.852,176.6 -28.656,329.32 -28.656,329.32 0,0 4.769,-243.4 -23.852,-291.14 -28.66,-47.72 -52.488,-62.03 -85.918,-124.1 -33.426,-62.07 14.309,-100.21 33.43,-119.3"
         style="fill:#e67a17;fill-opacity:1;fill-rule:nonzero;stroke:none"
         id="path36" /><path
         d="m 795.234,3884.26 -16.562,10.49 c -48.832,-1.66 16.562,-10.49 16.562,-10.49"
         style="fill:#faba4f;fill-opacity:1;fill-rule:nonzero;stroke:none"
         id="path38" /><path
         d="m 1406.08,3791.56 c 0,0 -76.34,12.72 -114.54,69.98 -38.2,57.28 -146.35,171.84 -318.79,173.12 -172.422,1.29 -343.008,-45.82 -343.008,-45.82 l 148.91,-94.09 c 15.75,0.5 43.289,0.3 88.832,-1.22 186.886,-6.21 215.656,-191.07 215.656,-191.07 l 658.62,90.69"
         style="fill:#f8a00f;fill-opacity:1;fill-rule:nonzero;stroke:none"
         id="path40" /><path
         d="m 1469.74,2770.6 c 0,0 -89.1,-89.1 -225.94,-60.44 -136.83,28.61 -219.57,89.07 -225.93,194.09 -6.36,105 28.66,146.36 28.66,146.36 0,0 152.72,-47.76 225.93,-111.4 73.18,-63.62 127.26,-165.44 197.28,-168.61"
         style="fill:#ffffff;fill-opacity:1;fill-rule:nonzero;stroke:none"
         id="path42" /><path
         d="m 1361.9,2802.43 c 0,0 -77.27,-35.3 -163.64,-6.55 -113.06,37.71 -120.59,155.29 -120.59,155.29 0,0 -69.35,-203.53 125.1,-242.72 155.97,-31.42 248.21,58.96 248.21,58.96 l -89.08,35.02"
         style="fill:#c9c8c6;fill-opacity:1;fill-rule:nonzero;stroke:none"
         id="path44" /><path
         d="m 1416.81,3834.74 c -8.31,174.56 134.79,313.59 184.37,319.51 2.74,-29.58 -2.77,-144.95 46.81,-180.44 14.44,94.24 63.24,198.14 255.94,266.21 -41.27,-109.47 -5.51,-201.15 11.52,-243.65 131.59,119.44 220.25,99.7 220.25,99.7 0,0 -91.42,-157.77 -55.67,-261.3 -264.17,20.72 -661.93,-28.06 -663.22,-0.03"
         style="fill:#3f2a18;fill-opacity:1;fill-rule:nonzero;stroke:none"
         id="path46" /><path
         d="m 856.793,3568.85 c -63.031,52.28 -16.051,100.81 -21.031,160.23 -2.703,31.61 -5.203,61.44 -15.633,77.89 -58,91.59 -194.836,119.38 -196.199,119.67 l -64.223,12.58 42.516,49.73 c 5.507,6.44 180.086,173.01 450.257,85.78 188.98,-60.94 328.88,-267.62 334.08,-275.98 l -94.75,-44.55 c -1.12,1.76 -111.72,196.02 -273.84,248.3 -131.068,42.29 -251.849,2.07 -303.595,-24.3 55.004,-21.96 126.914,-61.95 170.238,-130.36 20.446,-32.31 23.895,-72.99 27.223,-112.38 4.391,-52.15 8.5,-101.38 46.887,-133.26 l -101.93,-33.35"
         style="fill:#3f2a18;fill-opacity:1;fill-rule:nonzero;stroke:none"
         id="path48" /><path
         d="m 688.457,2805.52 c 0,0 79.41,98.46 102.934,290.08 9.238,75.46 -7.172,224.32 -33.426,281.6 4.769,-140.79 -31.024,-281.6 -31.024,-281.6 0,0 -24.132,-261.44 -38.484,-290.08"
         style="fill:#3f2a18;fill-opacity:1;fill-rule:nonzero;stroke:none"
         id="path50" /><path
         d="m 1107.18,3668.3 c -0.04,0.21 -25.48,111.38 -96.01,167.5 -99.486,79.14 -220.971,37.04 -222.143,36.66 l -17.64,54.5 c 5.883,1.91 144.726,45.66 272.683,-44.3 128.73,-90.45 144.18,-172.45 145.52,-181.52 l -82.41,-32.84"
         style="fill:#3f2a18;fill-opacity:1;fill-rule:nonzero;stroke:none"
         id="path52" /><path
         d="m 937.859,2876.14 c 0,0 -41.66,59.65 -34.164,125.23 3.731,32.39 18.743,65.65 45.543,77.44 49.801,21.88 71.872,-34.57 71.872,-34.57 0,0 -70.094,-17.3 -83.251,-168.1"
         style="fill:#3f2a18;fill-opacity:1;fill-rule:nonzero;stroke:none"
         id="path54" /><path
         d="m 1395.29,2785.24 c 1.74,-3.25 2.63,-5.07 2.63,-5.07 0,0 -129.94,-97.52 -263.11,1.44 -71.28,53.02 -64.54,184.18 -42.7,239.79 56.79,-12.87 104.96,-36.08 145.22,-63.17 -50.88,45.41 -95.42,78.84 -95.3,79.62 l -57.83,16.37 -112.399,38.54 c -1.442,-8.58 -42.438,-200.74 75.909,-331.69 52.45,-58.05 298.34,-188.07 415.1,34.24 l -67.52,-10.07"
         style="fill:#3f2a18;fill-opacity:1;fill-rule:nonzero;stroke:none"
         id="path56" /><path
         d="m 1383.12,2770.95 c 73.16,-111.35 257.75,-47.72 254.57,70 0,0 -123.34,-68.06 -232.31,57.26 -63.62,73.18 -267.48,274.92 -543.935,207.87 190.915,-41.98 443.665,-216.41 521.675,-335.13"
         style="fill:#3f2a18;fill-opacity:1;fill-rule:nonzero;stroke:none"
         id="path58" /><path
         d="m 835.609,2456.68 c 17.606,-10.16 79.668,-74.44 79.707,-170.58 0,-48.21 -4.804,-290.4 -28.656,-438.37 35.891,-23.32 60.895,-28.28 96.633,-52.05 17.887,171.36 30.717,419.72 24.737,519.98 -6.83,114.3 -68.03,191 -124.776,223.7 -17.774,10.22 -36.344,20.27 -55.047,30.39 -97.195,52.52 -197.711,106.85 -197.711,199.61 0,72.58 28.211,95.27 58.078,119.33 l 3.219,2.61 c 19.816,16.01 42.246,34.17 55.535,64 36.266,81.53 42.192,289.21 0,341.93 -21.027,26.27 -77.383,114.61 -61.176,173.97 6.168,22.66 20.442,39.44 43.668,51.35 24.582,12.59 57.785,18.97 98.672,18.97 80.297,0 169.356,-24.44 215.308,-39 164.19,-52.03 362.32,-202.07 419.11,-246.83 1.62,-1.24 2.59,-1.98 2.76,-2.1 l 36.34,-25.27 -22.73,38.03 c -1.4,2.37 -145.34,239.05 -402.71,325.84 -50.07,16.88 -148.433,45.2 -245.105,45.2 -57.563,0 -106.399,-10.05 -145.07,-29.85 -47.133,-24.11 -79.047,-62.58 -92.313,-111.21 -32.5,-119.21 73.352,-251.94 76.965,-256.17 12.344,-22.04 17.566,-182.06 -10.945,-246.11 -3.914,-8.85 -14.668,-17.53 -28.278,-28.51 -4.258,-3.45 -9.027,-7.02 -14.082,-10.86 -40.222,-30.36 -101.043,-76.23 -101.043,-181.97 0,-144.67 146.621,-223.11 264.453,-286.18 19.328,-10.39 37.786,-20.23 54.457,-29.85"
         style="fill:#3f2a18;fill-opacity:1;fill-rule:nonzero;stroke:none"
         id="path60" /><path
         d="m 856.793,3568.85 c -63.031,52.28 -16.051,100.81 -21.031,160.23 -2.703,31.61 -5.203,61.44 -15.633,77.89 -58,91.59 -194.836,119.38 -196.199,119.67 l -64.223,12.58 42.516,49.73 c 5.507,6.44 180.086,173.01 450.257,85.78 188.98,-60.94 328.88,-267.62 334.08,-275.98 l -94.75,-44.55 c -1.12,1.76 -111.72,196.02 -273.84,248.3 -131.068,42.29 -251.849,2.07 -303.595,-24.3 55.004,-21.96 126.914,-61.95 170.238,-130.36 20.446,-32.31 23.895,-72.99 27.223,-112.38 4.391,-52.15 8.5,-101.38 46.887,-133.26 l -101.93,-33.35"
         style="fill:#3f2a18;fill-opacity:1;fill-rule:nonzero;stroke:none"
         id="path62" /><path
         d="m 854.746,3558.14 -4.066,3.36 c -46.739,38.79 -38.45,77 -30.422,113.97 3.652,17.06 7.496,34.7 5.941,52.8 -2.551,30.42 -4.992,59.11 -14.152,73.61 -55.235,87.2 -188.703,115.14 -190.027,115.41 l -80.219,15.73 53.172,62.16 c 0.965,1.15 113.058,114.31 302.894,114.31 51.75,0 104.773,-8.61 157.523,-25.65 197.24,-63.6 337.95,-277.89 339.28,-280.01 l 5.69,-9.1 -112.09,-52.72 -4.51,7.13 c -12.06,20.56 -118.34,195.84 -268.69,244.34 -36.925,11.92 -75.828,17.94 -115.593,17.94 -72.028,0 -130.438,-19.63 -161.516,-32.81 51.937,-23.39 114.93,-62.76 154.793,-125.62 21.676,-34.24 25.176,-76.1 28.625,-116.53 4.219,-50.27 8.211,-97.55 43.476,-126.84 l 13.305,-11.03 -123.414,-40.45"
         style="fill:#3f2a18;fill-opacity:1;fill-rule:nonzero;stroke:none"
         id="path64" /><path
         d="m 1107.18,3668.3 c -0.04,0.21 -25.48,111.38 -96.01,167.5 -99.486,79.14 -220.971,37.04 -222.143,36.66 l -17.64,54.5 c 5.883,1.91 144.726,45.66 272.683,-44.3 128.73,-90.45 144.18,-172.45 145.52,-181.52 l -82.41,-32.84"
         style="fill:#3f2a18;fill-opacity:1;fill-rule:nonzero;stroke:none"
         id="path66" /><path
         d="m 867.504,3893.52 c 56.519,0 108.293,-17.38 149.606,-50.24 59.9,-47.71 88.06,-131.92 96.58,-162.11 l 64.92,25.88 c -5.88,22.92 -31.76,91.7 -139.99,167.8 -51.788,36.4 -111.358,54.84 -177.116,54.84 -36.078,0 -64.109,-5.74 -77.965,-9.24 l 11.715,-36.19 c 13.574,3.65 39.711,9.26 72.25,9.26 z m 232.846,-238.22 -2.48,10.94 c -0.27,1.07 -25.22,108.44 -92.66,162.06 -38.44,30.61 -84.8,46.15 -137.706,46.15 -41.305,0 -71.984,-9.86 -75.336,-11.01 l -9.121,-3.03 -23.66,72.68 9.066,2.93 c 4.067,1.29 40.922,12.78 93.051,12.78 68.769,0 133.789,-20.18 188.106,-58.32 131.96,-92.73 148.07,-178.47 149.45,-187.94 l 1.15,-7.47 -99.86,-39.77"
         style="fill:#3f2a18;fill-opacity:1;fill-rule:nonzero;stroke:none"
         id="path68" /><path
         d="m 1455.37,1285.2 0,0 c -28.2,0 -56.98,10.23 -76.93,27.5 -15.27,13.16 -66.91,60.58 -89.68,118.7 -8.5,21.72 -6.59,39.11 5.74,51.62 8.49,8.57 26.13,18.82 61.95,18.82 l 25.48,0.03 c 30.36,0.03 81.48,0.03 125.17,0.03 l 41.89,0 c 27.24,0 46.77,-5.88 58,-17.37 14.42,-14.82 9.8,-33.67 5.77,-43.59 -7.02,-17.39 -36.08,-73.94 -85.26,-126.53 -17.6,-18.82 -43.23,-29.21 -72.13,-29.21"
         style="fill:#3f2a18;fill-opacity:1;fill-rule:nonzero;stroke:none"
         id="path70" /><path
         d="m 1484.94,2764.4 -101.82,6.55 c 0,0 26.03,-45.88 42.89,-105.22 19.04,-67.12 -17.41,-165.21 -17.41,-165.21 0,0 135.75,153.7 76.34,263.88"
         style="fill:#3f2a18;fill-opacity:1;fill-rule:nonzero;stroke:none"
         id="path72" /><path
         d="m 1357.83,1016.35 c -362.385,27.85 -489.892,370.28 -489.892,441.6 l 94.644,-0.04 -47.316,0.04 47.316,0 c 0.477,-30.83 96.788,-323.75 402.498,-347.26 l -7.25,-94.34"
         style="fill:#3f2a18;fill-opacity:1;fill-rule:nonzero;stroke:none"
         id="path74" /><path
         d="m 1256,1629.86 c -5.66,32.74 -6.25,63.77 0.66,94.27 -27.54,20.7 -76.97,28.39 -114.05,40.41 -30.32,19.19 -185.477,-19.67 -298.044,116.56 -141.043,170.59 -111.359,272.44 -111.359,272.44 -36.156,-40.18 -71.211,-24.87 -126.332,-212.21 -55.195,-187.38 25.914,-318.01 177.078,-449.15 71.418,-61.96 172.387,-87.47 259.227,-97.24 -29.09,29.21 49.69,32.13 103.99,52.45 -4.33,43.84 2.92,86.4 35.61,120.68 19.71,20.66 45.07,33 71.38,42.85 1.47,3.4 2.71,6.54 4.11,9.8 -0.87,2.97 -1.73,5.98 -2.27,9.14"
         style="fill:#ffffff;fill-opacity:1;fill-rule:nonzero;stroke:none"
         id="path76" /><path
         d="m 1146.44,1448.53 c -3.14,9.19 -5.51,18.58 -7.84,28.01 -2.52,10.32 -15.01,39.52 0.4,6.17 -3.96,8.54 -6.55,17.35 -8.46,26.22 -244.825,0.31 -457.81,168.39 -416.657,521.78 -32.047,42.55 -76.93,-85.8 -76.93,-85.8 0,0 -122.558,-355.88 193.981,-493.81 105.472,-45.99 198.676,-78.97 220.676,-65.66 45.8,-9.31 87.16,22.63 102.66,43.63 -2.91,6.46 -5.56,12.92 -7.83,19.46"
         style="fill:#c9c8c6;fill-opacity:1;fill-rule:nonzero;stroke:none"
         id="path78" /><path
         d="m 1251.59,1681.1 c 0.37,29.84 6.47,58.72 20.89,87.51 1.01,1.99 2.18,3.88 3.26,5.81 -94.21,0.81 -202.71,9.84 -295.099,46.81 -101.555,40.63 -228.579,179.59 -250.407,342.87 0,0 -191.254,-147.58 -135.054,-463.46 52.754,-296.62 300.965,-393.32 584.04,-409.67 0.15,1.92 -31.84,67.99 -21.73,108.44 -160.744,-11.68 -340.486,50.42 -427.256,193.21 -79.441,130.68 -57.164,353.79 -24.511,386.48 79.632,-251.3 366.187,-302.38 545.867,-298"
         style="fill:#3f2a18;fill-opacity:1;fill-rule:nonzero;stroke:none"
         id="path80" /><path
         d="m 1281.25,1861 c -50.94,-149.5 -154.99,-270.47 -154.99,-270.47 0,0 143.13,6.51 151.03,31.83 5.85,18.67 129.24,307.52 176.6,645.89 C 1409.34,2195.07 1285.6,1873.8 1281.25,1861"
         style="fill:#3f2a18;fill-opacity:1;fill-rule:nonzero;stroke:none"
         id="path82" /><path
         d="m 2092.15,2205.65 c 0,0 162.24,-248.15 281.33,-424.24 18.41,-27.24 -119.09,-29.13 -119.09,-29.13 l -162.24,453.37"
         style="fill:#e67a17;fill-opacity:1;fill-rule:nonzero;stroke:none"
         id="path84" /><path
         d="m 2014.86,2720.13 c 0,0 48.93,-122.05 75.7,-186.75 29.09,-70.34 139.99,-105.33 139.99,-105.33 0,0 -57.48,60.3 -57.48,213.05 0,64.1 -82.74,89.57 -82.74,89.57 l -75.47,-10.54"
         style="fill:#e67a17;fill-opacity:1;fill-rule:nonzero;stroke:none"
         id="path86" /><path
         d="m 2064.28,2651.12 c 0,0 100.23,-119.31 286.37,-52.49 186.15,66.81 205.23,305.45 205.23,372.27 0,66.81 -353.17,-66.82 -400.91,-95.46 -47.74,-28.64 -138.41,-143.17 -90.69,-224.32"
         style="fill:#e67a17;fill-opacity:1;fill-rule:nonzero;stroke:none"
         id="path88" /><path
         d="m 2767.29,3926.03 c 0,0 -171.8,33.43 -286.37,-57.26 -114.53,-90.66 -147.95,-162.27 -147.95,-162.27 l 193.06,-153.02 c 0,0 93.32,43.25 121.96,167.35 28.61,124.07 9.53,181.33 119.3,205.2"
         style="fill:#e67a17;fill-opacity:1;fill-rule:nonzero;stroke:none"
         id="path90" /><path
         d="m 2114.4,2995.75 c 73.98,105 195.83,150.8 293.21,158.4 165.96,12.98 244.71,-45.7 244.71,-45.7 0,0 -271.79,-11.51 -350.14,-114.4 -145.85,-191.51 -358.55,-207.06 -392.56,-165.01 39.33,-1.96 82.63,17.53 128.92,61.34 28.92,27.4 52.4,72.04 75.86,105.37"
         style="fill:#e67a17;fill-opacity:1;fill-rule:nonzero;stroke:none"
         id="path92" /><path
         d="m 2573.23,2624.48 c 0,0 301.54,103.67 244.26,208.65 -57.26,105.02 -11.72,162.22 -11.72,162.22 0,0 168.43,-125.7 125.48,-259.32 -26.37,-82.02 -70.61,-141.4 -313.54,-255.25 -116.52,-216.43 -24.06,-606 -29.57,-607.83 -9.23,-3.07 -163.59,76.3 -153.04,440.77 3.19,111.92 12.15,264.71 138.13,310.76"
         style="fill:#e67a17;fill-opacity:1;fill-rule:nonzero;stroke:none"
         id="path94" /><path
         d="m 2178.07,3739.28 c 126.4,-64.24 299.66,-153.7 299.66,-153.7 l -68.17,-34.11 c 6.51,-10.54 9.66,-16.82 9.66,-16.82 l -69.98,-31.82 c 0,0 -170.84,-123.76 -275.51,-203.31 34.86,107.45 137.31,276.28 137.31,276.28 0,0 29.08,77.56 -32.97,163.48"
         style="fill:#e67a17;fill-opacity:1;fill-rule:nonzero;stroke:none"
         id="path96" /><path
         d="m 1758,1120.68 c 388.6,0 520.25,197.32 520.25,197.32 l -60.7,-147.91 c -22.96,-64 -267.9,-263.11 -458.97,-263.11"
         style="fill:#e67a17;fill-opacity:1;fill-rule:nonzero;stroke:none"
         id="path98" /><path
         d="m 2235.7,1451.31 c 0,0 -35.8,-218.54 -178.93,-218.54 -121.65,0 -157.51,184.6 -157.51,222.76 l 336.44,-4.22"
         style="fill:#e67a17;fill-opacity:1;fill-rule:nonzero;stroke:none"
         id="path100" /><path
         d="m 2473.97,1780.9 c -12.72,35.02 -57.25,176.6 -71.61,305.45 -17.15,154.32 -10.86,380.03 -10.86,380.03 0,0 38.2,-147.95 71.57,-171.86 33.43,-23.85 95.46,-186.1 95.46,-186.1 0,0 33.24,-241.56 49.06,-322.76 -43.78,-8.77 -80.6,17.04 -133.62,-4.76"
         style="fill:#e67a17;fill-opacity:1;fill-rule:nonzero;stroke:none"
         id="path102" /><path
         d="m 2819.77,2738.4 c 0,0 -81.16,28.66 -105,205.22 -23.85,176.6 28.65,329.32 28.65,329.32 0,0 -4.81,-243.4 23.85,-291.14 28.66,-47.74 52.5,-62.03 85.91,-124.1 33.38,-62.05 -14.34,-100.21 -33.41,-119.3"
         style="fill:#e67a17;fill-opacity:1;fill-rule:nonzero;stroke:none"
         id="path104" /><path
         d="m 2722.87,3884.26 16.59,10.49 c 48.84,-1.66 -16.59,-10.49 -16.59,-10.49"
         style="fill:#faba4f;fill-opacity:1;fill-rule:nonzero;stroke:none"
         id="path106" /><path
         d="m 2112,3791.56 c 0,0 76.38,12.72 114.54,69.98 38.2,57.28 146.39,171.84 318.83,173.12 172.42,1.29 343.01,-45.82 343.01,-45.82 l -148.92,-94.09 c -15.75,0.5 -43.29,0.3 -88.86,-1.22 -186.85,-6.21 -215.62,-191.07 -215.62,-191.07 l -658.6,90.69"
         style="fill:#f8a00f;fill-opacity:1;fill-rule:nonzero;stroke:none"
         id="path108" /><path
         d="m 2048.38,2770.6 c 0,0 89.1,-89.1 225.9,-60.44 136.83,28.61 219.57,89.07 225.93,194.09 6.35,105 -28.63,146.36 -28.63,146.36 0,0 -152.75,-47.76 -225.93,-111.4 -73.17,-63.64 -127.25,-165.44 -197.27,-168.61"
         style="fill:#ffffff;fill-opacity:1;fill-rule:nonzero;stroke:none"
         id="path110" /><path
         d="m 2156.18,2802.43 c 0,0 77.31,-35.3 163.64,-6.55 113.09,37.71 120.63,155.29 120.63,155.29 0,0 69.32,-203.53 -125.14,-242.72 -155.93,-31.42 -248.2,58.96 -248.2,58.96 l 89.07,35.02"
         style="fill:#c9c8c6;fill-opacity:1;fill-rule:nonzero;stroke:none"
         id="path112" /><path
         d="m 2661.31,3568.85 c 63.03,52.28 16.09,100.81 21.07,160.23 2.66,31.61 5.16,61.44 15.59,77.89 58.01,91.59 194.83,119.38 196.24,119.67 l 64.23,12.58 -42.52,49.73 c -5.51,6.44 -180.09,173.01 -450.29,85.78 -188.95,-60.94 -328.85,-267.62 -334.06,-275.98 l 94.72,-44.55 c 1.15,1.76 111.76,196.02 273.89,248.3 131.05,42.29 251.83,2.07 303.55,-24.3 -54.97,-21.96 -126.91,-61.95 -170.24,-130.36 -20.44,-32.31 -23.86,-72.99 -27.18,-112.38 -4.4,-52.15 -8.55,-101.38 -46.93,-133.26 l 101.93,-33.35"
         style="fill:#3f2a18;fill-opacity:1;fill-rule:nonzero;stroke:none"
         id="path114" /><path
         d="m 2829.62,2805.52 c 0,0 -79.37,98.46 -102.89,290.08 -9.24,75.46 7.14,224.32 33.39,281.6 -4.77,-140.79 31.05,-281.6 31.05,-281.6 0,0 24.14,-261.44 38.45,-290.08"
         style="fill:#3f2a18;fill-opacity:1;fill-rule:nonzero;stroke:none"
         id="path116" /><path
         d="m 2410.94,3668.3 c 0.04,0.21 25.48,111.38 96.01,167.5 99.49,79.14 220.97,37.04 222.1,36.66 l 17.69,54.5 c -5.9,1.91 -144.73,45.66 -272.74,-44.3 -128.73,-90.45 -144.14,-172.45 -145.51,-181.52 l 82.45,-32.84"
         style="fill:#3f2a18;fill-opacity:1;fill-rule:nonzero;stroke:none"
         id="path118" /><path
         d="m 2580.25,2876.14 c 0,0 41.66,59.65 34.13,125.23 -3.69,32.39 -18.7,65.65 -45.49,77.44 -49.81,21.88 -71.88,-34.57 -71.88,-34.57 0,0 70.09,-17.3 83.24,-168.1"
         style="fill:#3f2a18;fill-opacity:1;fill-rule:nonzero;stroke:none"
         id="path120" /><path
         d="m 2122.83,2785.24 c -1.74,-3.25 -2.63,-5.07 -2.63,-5.07 0,0 129.9,-97.52 263.06,1.44 71.33,53.02 64.59,184.18 42.72,239.79 -56.76,-12.87 -104.93,-36.08 -145.2,-63.17 50.89,45.41 95.43,78.84 95.27,79.62 l 57.88,16.37 112.39,38.52 c 1.43,-8.58 42.43,-200.74 -75.95,-331.69 -52.44,-58.05 -298.34,-188.07 -415.06,34.25 l 67.52,-10.06"
         style="fill:#3f2a18;fill-opacity:1;fill-rule:nonzero;stroke:none"
         id="path122" /><path
         d="m 2134.96,2770.95 c -73.16,-111.35 -257.69,-47.72 -254.51,70 0,0 123.3,-68.06 232.26,57.26 63.63,73.18 267.52,274.92 543.98,207.87 -190.91,-41.98 -443.68,-216.41 -521.73,-335.13"
         style="fill:#3f2a18;fill-opacity:1;fill-rule:nonzero;stroke:none"
         id="path124" /><path
         d="m 2682.53,2456.68 c -17.61,-10.16 -79.71,-74.44 -79.71,-170.58 -0.04,-48.21 4.77,-290.4 28.66,-438.37 -35.89,-23.32 -60.89,-28.28 -96.64,-52.05 -17.89,171.36 -30.76,419.72 -24.73,519.98 6.82,114.3 68,191 124.73,223.7 17.78,10.22 36.35,20.27 55.09,30.39 97.2,52.52 197.71,106.85 197.71,199.61 0,72.58 -28.25,95.27 -58.11,119.33 l -3.18,2.61 c -19.83,16.01 -42.29,34.17 -55.54,64 -36.27,81.53 -42.22,289.21 -0.04,341.93 21.03,26.27 77.42,114.61 61.22,173.97 -6.21,22.66 -20.49,39.44 -43.71,51.35 -24.59,12.59 -57.75,18.97 -98.67,18.97 -80.25,0 -169.36,-24.44 -215.27,-39 -164.19,-52.03 -362.32,-202.07 -419.14,-246.83 -1.63,-1.24 -2.56,-1.98 -2.75,-2.1 l -36.36,-25.27 22.74,38.03 c 1.43,2.37 145.35,239.05 402.71,325.84 50.08,16.88 148.44,45.2 245.12,45.2 57.56,0 106.35,-10.05 145.06,-29.85 47.14,-24.11 79.04,-62.58 92.32,-111.21 32.5,-119.21 -73.36,-251.94 -76.97,-256.17 -12.34,-22.04 -17.56,-182.06 10.91,-246.11 3.91,-8.85 14.67,-17.53 28.31,-28.51 4.26,-3.45 8.99,-7.02 14.08,-10.86 40.24,-30.36 101.02,-76.23 101.02,-181.97 0,-144.67 -146.62,-223.11 -264.42,-286.18 -19.33,-10.39 -37.81,-20.23 -54.44,-29.85"
         style="fill:#3f2a18;fill-opacity:1;fill-rule:nonzero;stroke:none"
         id="path126" /><path
         d="m 2507.63,3585.87 c -23.32,39.5 -82.96,115.77 -220.42,182.79 -153.4,74.77 -330.94,112.72 -527.77,112.81 l 0,0.04 c 0,0 -0.27,0 -0.38,0 0,0 -0.27,0 -0.38,0 l 0,-0.02 c -196.85,-0.1 -374.43,-38.04 -527.79,-112.81 -137.45,-67.03 -197.08,-143.29 -220.42,-182.79 l -10.01,-13.25 117.71,-26.2 3.73,4.71 1.97,4.32 c 1.82,7.78 17.6,49.78 148.84,113.78 140.3,68.43 303.94,103.12 486.33,103.18 182.42,-0.06 345.98,-34.75 486.27,-103.18 131.25,-64 147.08,-106 148.88,-113.78 l 1.96,-4.32 3.69,-4.71 117.76,26.2 -9.97,13.23"
         style="fill:#3f2a18;fill-opacity:1;fill-rule:nonzero;stroke:none"
         id="path128" /><path
         d="m 2661.31,3568.85 c 63.03,52.28 16.09,100.81 21.07,160.23 2.66,31.61 5.16,61.44 15.59,77.89 58.01,91.59 194.83,119.38 196.24,119.67 l 64.23,12.58 -42.52,49.73 c -5.51,6.44 -180.09,173.01 -450.29,85.78 -188.95,-60.94 -328.85,-267.62 -334.06,-275.98 l 94.72,-44.55 c 1.15,1.76 111.76,196.02 273.89,248.3 131.05,42.29 251.83,2.07 303.55,-24.3 -54.97,-21.96 -126.91,-61.95 -170.24,-130.36 -20.44,-32.31 -23.86,-72.99 -27.18,-112.38 -4.4,-52.15 -8.55,-101.38 -46.93,-133.26 l 101.93,-33.35"
         style="fill:#3f2a18;fill-opacity:1;fill-rule:nonzero;stroke:none"
         id="path130" /><path
         d="m 2540,3598.55 13.26,11.04 c 35.3,29.28 39.26,76.56 43.52,126.84 3.42,40.45 6.95,82.3 28.62,116.52 39.82,62.84 102.86,102.21 154.8,125.63 -31.1,13.17 -89.52,32.8 -161.56,32.8 -39.78,0 -78.62,-6.02 -115.55,-17.94 -150.39,-48.5 -256.66,-223.78 -268.7,-244.33 l -4.51,-7.14 -112.09,52.72 5.71,9.1 c 1.31,2.12 141.99,216.41 339.23,280.01 52.76,17.04 105.77,25.65 157.56,25.65 189.84,0 301.94,-113.18 302.89,-114.31 l 53.18,-62.16 -80.23,-15.73 c -1.33,-0.27 -134.78,-28.19 -190.06,-115.41 -9.16,-14.5 -11.56,-43.17 -14.16,-73.61 -1.51,-18.1 2.3,-35.74 5.99,-52.79 8.02,-36.97 16.3,-75.21 -30.46,-113.97 l -4.06,-3.37 -123.38,40.45"
         style="fill:#3f2a18;fill-opacity:1;fill-rule:nonzero;stroke:none"
         id="path132" /><path
         d="m 2410.94,3668.3 c 0.04,0.21 25.48,111.38 96.01,167.5 99.49,79.14 220.97,37.04 222.1,36.66 l 17.69,54.5 c -5.9,1.91 -144.73,45.66 -272.74,-44.3 -128.73,-90.45 -144.14,-172.45 -145.51,-181.52 l 82.45,-32.84"
         style="fill:#3f2a18;fill-opacity:1;fill-rule:nonzero;stroke:none"
         id="path134" /><path
         d="m 2722.87,3884.26 11.75,36.19 c -13.86,3.52 -41.92,9.24 -78,9.24 -65.74,0 -125.33,-18.46 -177.09,-54.84 -108.28,-76.11 -134.16,-144.88 -140.03,-167.8 l 64.97,-25.88 c 8.5,30.21 36.64,114.42 96.57,162.11 41.34,32.86 93.05,50.24 149.58,50.24 32.5,0 58.68,-5.61 72.25,-9.26 z m -404.9,-189.19 1.11,7.47 c 1.4,9.47 17.52,95.19 149.46,187.94 54.27,38.14 119.31,58.32 188.08,58.32 52.16,0 89.01,-11.47 93.09,-12.78 l 9.06,-2.93 -23.65,-72.68 -9.13,3.03 c -3.41,1.15 -34.1,11.01 -75.37,11.01 -52.91,0 -99.23,-15.52 -137.67,-46.15 -67.46,-53.64 -92.43,-161 -92.66,-162.06 l -2.48,-10.92 -99.84,39.75"
         style="fill:#3f2a18;fill-opacity:1;fill-rule:nonzero;stroke:none"
         id="path136" /><path
         d="m 1990.64,1314.43 c -49.17,52.57 -78.26,109.14 -85.29,126.53 -4.02,9.9 -8.6,28.77 5.82,43.59 11.24,11.48 30.72,17.37 57.96,17.37 l 41.92,0 c 43.7,0 94.78,0 125.16,-0.03 l 25.48,-0.03 c 35.79,0 53.42,-10.25 61.91,-18.82 12.35,-12.49 14.27,-29.88 5.78,-51.62 -22.78,-58.12 -74.43,-105.55 -89.69,-118.71 -20,-17.26 -48.71,-27.5 -76.92,-27.5 l 0,0 c -28.9,-0.01 -54.52,10.38 -72.13,29.22"
         style="fill:#3f2a18;fill-opacity:1;fill-rule:nonzero;stroke:none"
         id="path138" /><path
         d="m 2033.2,2764.4 101.76,6.55 c 0,0 -25.99,-45.88 -42.85,-105.22 -19.04,-67.12 17.41,-165.21 17.41,-165.21 0,0 -135.77,153.7 -76.32,263.88"
         style="fill:#3f2a18;fill-opacity:1;fill-rule:nonzero;stroke:none"
         id="path140" /><path
         d="m 1759.08,3127.91 c -64.89,0 -149.5,1.78 -212.99,47.4 0,0 83.12,-145.72 212.87,-145.72 l 0.12,18.44 0.11,-18.44 c 129.76,0 212.87,145.72 212.87,145.72 -63.49,-45.62 -148.15,-47.4 -212.98,-47.4"
         style="fill:#e67a17;fill-opacity:1;fill-rule:nonzero;stroke:none"
         id="path142" /><path
         d="m 1937.74,3128.61 c -65.08,-39.39 -123.22,-53.04 -178.66,-54.25 -55.46,1.21 -113.57,14.86 -178.67,54.25 0,0 94.8,-115.67 178.19,-116.56 l 0,-0.08 c 0.15,0 0.31,0.04 0.48,0.04 0.15,0 0.3,-0.04 0.47,-0.04 l 0,0.08 c 83.36,0.89 178.19,116.56 178.19,116.56"
         style="fill:#3f2a18;fill-opacity:1;fill-rule:nonzero;stroke:none"
         id="path144" /><path
         d="m 2160.29,1016.35 -7.25,94.34 c 305.65,23.51 401.96,316.43 402.46,347.26 l 94.64,0 c 0.04,-71.3 -127.5,-413.75 -489.85,-441.6"
         style="fill:#3f2a18;fill-opacity:1;fill-rule:nonzero;stroke:none"
         id="path146" /><path
         d="m 2262.11,1629.86 c 5.69,32.74 6.24,63.77 -0.66,94.27 27.57,20.7 76.96,28.39 114.04,40.41 30.32,19.19 185.52,-19.67 298.08,116.56 141.04,170.59 111.32,272.44 111.32,272.44 36.19,-40.18 71.21,-24.87 126.37,-212.21 55.2,-187.38 -25.95,-318.01 -177.12,-449.15 -71.41,-61.96 -172.38,-87.47 -259.22,-97.24 29.09,29.21 -49.69,32.13 -103.96,52.45 4.33,43.84 -2.95,86.4 -35.64,120.68 -19.67,20.66 -45.07,33 -71.36,42.85 -1.48,3.4 -2.75,6.54 -4.11,9.8 0.89,2.97 1.71,5.98 2.26,9.14"
         style="fill:#ffffff;fill-opacity:1;fill-rule:nonzero;stroke:none"
         id="path148" /><path
         d="m 2371.64,1448.53 c 3.18,9.19 5.51,18.58 7.84,28.01 2.55,10.32 15.05,39.52 -0.38,6.17 3.96,8.54 6.55,17.35 8.46,26.22 244.82,0.31 457.81,168.39 416.62,521.78 32.05,42.55 76.96,-85.8 76.96,-85.8 0,0 122.57,-355.88 -193.97,-493.81 -105.47,-45.99 -198.67,-78.97 -220.68,-65.66 -45.85,-9.31 -87.19,22.63 -102.66,43.63 2.89,6.46 5.6,12.92 7.81,19.46"
         style="fill:#c9c8c6;fill-opacity:1;fill-rule:nonzero;stroke:none"
         id="path150" /><path
         d="m 2266.49,1681.1 c -0.34,29.84 -6.47,58.72 -20.85,87.51 -1.01,1.99 -2.18,3.88 -3.26,5.81 94.2,0.81 202.71,9.84 295.1,46.81 101.54,40.63 228.57,179.59 250.41,342.87 0,0 191.25,-147.58 135.05,-463.46 -52.79,-296.62 -300.97,-393.32 -584.04,-409.67 -0.15,1.92 31.84,67.99 21.73,108.44 160.7,-11.68 340.44,50.42 427.26,193.21 79.4,130.68 57.12,353.79 24.47,386.48 -79.6,-251.3 -366.19,-302.38 -545.87,-298"
         style="fill:#3f2a18;fill-opacity:1;fill-rule:nonzero;stroke:none"
         id="path152" /><path
         d="m 2314.44,1404.22 c -43.17,-123.66 -159.19,-422.982 -555.38,-423.501 -396.25,0.519 -512.23,299.841 -555.4,423.501 -23.89,68.61 -22.07,119.37 5.58,150.92 18.89,21.56 62.29,47.28 161.2,47.28 l 103.33,0.04 c 76.23,0.07 171.94,0.15 285.29,0.19 113.3,-0.04 209.07,-0.12 285.28,-0.19 l 103.29,-0.04 c 98.93,0 142.33,-25.72 161.23,-47.28 27.63,-31.57 29.47,-82.31 5.58,-150.92 z m 66.36,202.48 c -33.82,36.56 -96,80.14 -239.36,80.14 0,0 -271.82,0.15 -381.89,0.23 l 0,0 c -0.15,0 -0.34,0 -0.47,0 0,0 -0.34,0 -0.48,0 l 0,0 c -110.05,-0.08 -381.93,-0.23 -381.93,-0.23 -143.34,0 -205.51,-43.6 -239.36,-80.14 -49.29,-53.21 -57.01,-127.23 -22.92,-219.75 90.61,-246.26 217.94,-496.438 644.19,-496.79 l 0,-0.039 c 0.16,0 0.31,0.039 0.48,0.039 0.15,0 0.3,-0.039 0.47,-0.039 l 0,0.039 c 426.21,0.371 553.54,250.53 644.18,496.79 34.1,92.52 26.35,166.54 -22.91,219.75"
         style="fill:#3f2a18;fill-opacity:1;fill-rule:nonzero;stroke:none"
         id="path154" /><path
         d="m 2236.86,1861 c 50.93,-149.5 154.98,-270.47 154.98,-270.47 0,0 -143.12,6.51 -151.03,31.83 -5.81,18.67 -129.21,307.52 -176.57,645.89 44.51,-73.18 168.24,-394.45 172.62,-407.25"
         style="fill:#3f2a18;fill-opacity:1;fill-rule:nonzero;stroke:none"
         id="path156" /><path
         d="m 620.508,662.641 c -19.063,11.5 -40.414,21.589 -63.488,29.961 -22.903,8.308 -48.231,14.929 -75.297,19.679 -27.11,4.789 -56.371,7.188 -86.996,7.188 -59.34,0 -113.95,-8.867 -162.293,-26.379 C 183.938,675.469 141.953,650.43 107.656,618.641 73.2227,586.809 46.4023,548.398 27.9297,504.469 9.49219,460.699 0.160156,412.109 0.160156,359.941 c 0,-51.269 9.785154,-99.5 29.093744,-143.32 C 48.5391,172.82 75.5703,134.449 109.547,102.52 143.469,70.6211 184.105,45.2695 230.445,27.1992 276.672,9.17969 327.605,0 381.855,0 c 29.793,0 58.032,1.39844 83.965,4.23828 26.032,2.82031 50.996,7.33982 74.239,13.40232 23.207,6.0391 45.429,13.8711 66.058,23.3594 20.617,9.4297 40.699,20.8711 59.664,33.9414 3.465,2.3594 5.508,6.2774 5.508,10.4688 l 0,286.6678 c 0,7 -5.68,12.703 -12.699,12.703 l -256.914,0 c -7.028,0 -12.723,-5.703 -12.723,-12.703 l 0,-114.707 c 0,-7.043 5.695,-12.723 12.723,-12.723 l 92.426,0 0,-81.429 c -12.817,-4.559 -26.387,-8.348 -40.508,-11.278 -16.883,-3.543 -36.684,-5.339 -58.867,-5.339 -28.657,0 -55.407,4.828 -79.422,14.289 -23.836,9.371 -44.696,23.211 -61.953,41.058 -17.379,17.922 -31.239,40.281 -41.133,66.5 -9.996,26.391 -15.071,57.172 -15.071,91.512 0,31 4.598,59.41 13.629,84.457 8.973,24.863 21.864,46.402 38.254,63.961 16.336,17.519 36.477,31.312 59.797,40.973 23.453,9.738 50.352,14.617 79.973,14.617 16.336,0 31.195,-0.731 44.144,-2.207 12.871,-1.473 25.231,-3.903 36.719,-7.071 11.547,-3.261 22.996,-7.48 34.031,-12.582 11.586,-5.371 65.535,-36.089 78.043,-43.121 8.559,-4.789 13.821,-5.078 19.535,3 l 72.688,106.133 c 3.691,5.219 2.875,12.469 -1.93,16.738 -15.129,13.539 -32.465,26.219 -51.523,37.782"
         style="fill:#3f2a18;fill-opacity:1;fill-rule:nonzero;stroke:none"
         id="path158" /><path
         d="m 1153.44,448.871 c -3.98,-11.101 -10.22,-20.512 -19.02,-28.832 -8.94,-8.34 -20.64,-15.019 -34.83,-19.82 -14.63,-4.969 -32.86,-7.489 -54.19,-7.489 l -54.763,0 0,175.942 54.763,0 c 40.09,0 69.67,-7.543 87.94,-22.352 17.7,-14.39 26.29,-34.019 26.29,-60.05 0.02,-13.399 -2.08,-25.961 -6.19,-37.399 z M 1258.36,263.41 c -7.93,12.238 -17.45,22.828 -28.28,31.449 -3.42,2.743 -6.91,5.321 -10.5,7.762 14.82,6.82 28.48,14.809 40.81,23.731 18.98,13.757 35.26,29.628 48.36,47.218 13.19,17.7 23.26,37.211 29.94,58 6.67,20.782 10.04,43.039 10.04,66.34 0,30.5 -5.7,59.16 -16.93,85.219 -11.41,26.441 -29.83,49.633 -54.72,68.902 -24.55,18.949 -56.41,33.867 -94.68,44.399 -37.8,10.332 -83.89,15.539 -137,15.539 l -235.095,0 c -7.024,0 -12.703,-5.68 -12.703,-12.688 l 0,-679.1208 c 0,-6.9922 5.679,-12.69926 12.703,-12.69926 l 167.629,0 c 7.023,0 12.703,5.70706 12.703,12.69926 l 0,238.5698 29.943,0 c 13.37,0 20.5,-2.281 24.1,-4.179 5.01,-2.633 9.57,-7.34 13.65,-13.961 L 1178.37,43.3516 C 1193,19.5117 1217.02,7.46094 1249.69,7.46094 l 151.77,0 c 0.17,-0.01953 0.34,0 0.42,0 7.04,0 12.72,5.70706 12.72,12.69926 0,3.6484 -1.53,6.9492 -3.99,9.25 L 1258.36,263.41"
         style="fill:#3f2a18;fill-opacity:1;fill-rule:nonzero;stroke:none"
         id="path160" /><path
         d="m 2100.74,711.98 -167.61,0 c -7.05,0 -12.7,-5.691 -12.7,-12.699 l 0,-402.23 c 0,-22.41 -3.05,-42.582 -9.01,-59.992 -5.85,-16.981 -14.35,-31.508 -25.27,-43.207 -10.89,-11.582 -24.44,-20.661 -40.3,-26.922 -32.24,-12.719 -78.94,-12.719 -111.19,0 -15.82,6.261 -29.34,15.371 -40.22,27.121 -10.94,11.84 -19.46,26.449 -25.31,43.508 -5.94,17.312 -8.99,37.511 -8.99,59.961 l 0,401.781 c 0,7 -5.68,12.687 -12.7,12.687 l -167.64,0 c -7.02,0 -12.7,-5.687 -12.7,-12.687 l 0,-402.231 c 0,-43.14 7.5,-83.351 22.27,-119.48 14.83,-36.36 36.55,-68.149 64.54,-94.4416 27.9,-26.2187 62.26,-46.8984 102.05,-61.3984 39.54,-14.41016 84.7,-21.7109375 134.29,-21.7109375 49.24,0 94.24,7.3203175 133.83,21.7109375 39.79,14.5195 74.08,35.1797 102.02,61.3984 28,26.3126 49.79,58.0426 64.8,94.3636 14.95,36.207 22.52,76.437 22.52,119.539 l 0,402.23 c 0.02,7.008 -5.65,12.699 -12.68,12.699"
         style="fill:#3f2a18;fill-opacity:1;fill-rule:nonzero;stroke:none"
         id="path162" /><path
         d="m 2890.25,711.98 -147.81,0 c -7.01,0 -12.68,-5.691 -12.68,-12.699 l 0,-359.359 c 0,-10.754 0.3,-22.172 0.92,-34.281 l -317.93,377.82 c -5.12,5.809 -9.66,10.43 -13.66,13.84 -4.66,3.969 -9.6,7.058 -14.62,9.199 -5.03,2.191 -10.68,3.66 -16.87,4.441 -5.36,0.68 -12.04,1.008 -19.92,1.008 l -88.3,0 c -6.99,0 -12.68,-5.679 -12.68,-12.687 l 0,-679.1214 c 0,-6.9922 5.69,-12.69919 12.68,-12.69919 l 147.81,0 c 7.01,0 12.74,5.70699 12.74,12.69919 l 0,364.0004 c 0,9.039 -0.28,18.55 -0.83,28.687 L 2734.64,38.1211 c 9.56,-11.4727 19.87,-19.6016 30.68,-24.1406 10.45,-4.33206 23.14,-6.53909 37.63,-6.53909 l 87.28,0 c 6.99,0 12.68,5.70699 12.68,12.69919 l 0,679.1214 c 0.02,7.027 -5.65,12.718 -12.66,12.718"
         style="fill:#3f2a18;fill-opacity:1;fill-rule:nonzero;stroke:none"
         id="path164" /><path
         d="m 3583.54,711.98 -574.3,0 c -7.01,0 -12.73,-5.691 -12.73,-12.699 l 0,-124.91 c 0,-7.012 5.72,-12.723 12.73,-12.723 l 190.64,0 0,-541.4878 c 0,-6.9922 5.71,-12.69926 12.73,-12.69926 l 167.59,0 c 7.02,0 12.72,5.70706 12.72,12.69926 l 0,541.4878 190.61,0 c 7,0 12.7,5.711 12.7,12.723 l 0,124.91 c 0.02,7.008 -5.68,12.699 -12.69,12.699"
         style="fill:#3f2a18;fill-opacity:1;fill-rule:nonzero;stroke:none"
         id="path166" /></g></g></svg>